<?xml version="1.0" encoding="UTF-8" standalone="no"?>
<!-- Created with Inkscape (http://www.inkscape.org/) -->

<svg
   xmlns:dc="http://purl.org/dc/elements/1.1/"
   xmlns:cc="http://creativecommons.org/ns#"
   xmlns:rdf="http://www.w3.org/1999/02/22-rdf-syntax-ns#"
   xmlns:svg="http://www.w3.org/2000/svg"
   xmlns="http://www.w3.org/2000/svg"
   xmlns:sodipodi="http://sodipodi.sourceforge.net/DTD/sodipodi-0.dtd"
   xmlns:inkscape="http://www.inkscape.org/namespaces/inkscape"
   width="210mm"
   height="297mm"
   viewBox="0 0 210 297"
   version="1.1"
   id="svg8"
   sodipodi:docname="self_portrait.svg"
   inkscape:version="0.92.2 5c3e80d, 2017-08-06">
  <defs
     id="defs2" />
  <sodipodi:namedview
     id="base"
     pagecolor="#ffffff"
     bordercolor="#666666"
     borderopacity="1.0"
     inkscape:pageopacity="0.0"
     inkscape:pageshadow="2"
     inkscape:zoom="0.39732043"
     inkscape:cx="403.44911"
     inkscape:cy="912.97392"
     inkscape:document-units="mm"
     inkscape:current-layer="layer1"
     showgrid="false"
     showguides="false"
     inkscape:window-width="1280"
     inkscape:window-height="659"
     inkscape:window-x="0"
     inkscape:window-y="1"
     inkscape:window-maximized="1" />
  <metadata
     id="metadata5">
    <rdf:RDF>
      <cc:Work
         rdf:about="">
        <dc:format>image/svg+xml</dc:format>
        <dc:type
           rdf:resource="http://purl.org/dc/dcmitype/StillImage" />
      </cc:Work>
    </rdf:RDF>
  </metadata>
  <g
     inkscape:label="Layer 1"
     inkscape:groupmode="layer"
     id="layer1"
     style="display:inline">
    <path
       style="fill:#f4ba9d;fill-opacity:1;stroke:#000000;stroke-width:0.26458332px;stroke-linecap:butt;stroke-linejoin:miter;stroke-opacity:1"
       d="m 0.88306863,111.19122 c 11.76686737,9.16474 24.04728737,14.22105 36.88319537,14.83346 9.44933,-0.58133 13.569443,-3.40653 16.30344,-6.81537 2.800603,-3.88661 3.73431,-8.51998 4.810852,-13.09621 l 6.414469,-14.298902 c 2.894054,-5.152617 2.86855,-13.755631 4.009043,-20.980638 0.363998,-2.78197 -0.335191,-5.412047 -1.202714,-8.018087 2.965006,-1.18915 4.277859,-3.584867 4.543581,-11.225302 -0.107282,-1.962485 0.68878,-3.247463 2.004523,-4.142679 L 74.248554,43.572085 64.626851,40.899388 V 39.83031 c 7.406737,1.480006 8.569019,1.173163 10.958049,1.069078 5.23464,-1.455526 9.887177,-3.420391 12.294397,-7.349911 C 88.112227,29.1289 86.286827,24.944834 81.46483,20.453269 67.259271,10.127362 63.756939,11.435398 57.143305,9.3615846 L 51.263374,8.2925066 45.784348,0.54169286 0.75594763,0.43987916 Z"
       id="path83"
       inkscape:connector-curvature="0"
       sodipodi:nodetypes="cccccccccccccccccccc" />
    <path
       style="fill:#e89698;fill-opacity:1;stroke:#000000;stroke-width:0.26458332px;stroke-linecap:butt;stroke-linejoin:miter;stroke-opacity:1"
       d="m 14.580631,91.613748 c 4.980035,3.67353 9.194295,7.857568 15.635269,10.557132 5.038361,1.1675 9.16497,1.16275 12.962572,0.73499 3.619298,-0.53898 6.481319,-1.38088 9.220798,-2.27178 2.398703,-2.537704 3.183007,-5.572142 3.274052,-8.819892 l 1.603616,-4.877667 0.801809,-1.67043 c -3.274052,-1.553567 -6.548104,-3.037557 -9.822156,-3.541317 -2.957614,0.17398 -5.767453,0.56962 -8.018084,1.80407 l -4.075861,-1.20272 c -8.178437,2.60366 -14.397503,6.186997 -21.582015,9.287614 z"
       id="path85"
       inkscape:connector-curvature="0"
       sodipodi:nodetypes="ccccccccccc" />
    <path
       style="fill:#ffffff;stroke:#000000;stroke-width:0.26458332px;stroke-linecap:butt;stroke-linejoin:miter;stroke-opacity:1"
       d="m 16.451518,91.480108 0.334087,1.1359 c 4.980794,1.92804 9.758476,4.533111 15.234364,4.810838 l 10.623963,0.93545 c 2.242008,-0.58093 4.733398,-1.193027 5.612659,-1.603614 l 7.283095,-8.753071 -2.939965,-2.47224 -9.955789,1.73725 c -4.672618,0.72191 -9.605892,0.92252 -14.633006,0.93544 z"
       id="path87"
       inkscape:connector-curvature="0"
       sodipodi:nodetypes="cccccccccc" />
    <path
       style="fill:#4c3945;fill-opacity:1;stroke:#000000;stroke-width:0.26458332px;stroke-linecap:butt;stroke-linejoin:miter;stroke-opacity:1"
       d="M 0.56696363,59.782126 C 4.1765697,68.03377 13.351146,65.115303 15.633441,65.707563 23.64056,66.19619 31.133345,64.137603 33.450891,57.514272 L 36.66369,47.97038 c 0.663367,-1.013426 1.840077,-1.385173 3.212798,-1.511906 1.504674,0.01164 2.732736,0.576504 3.702886,1.657192 l 3.34087,9.087156 c 1.35997,5.292361 5.227492,7.788331 14.365737,6.748541 12.563072,-1.33564 10.560338,-6.396941 11.225319,-10.623942 0.06724,-3.505948 0.523423,-4.413985 2.138158,-5.879929 L 74.248554,43.572085 C 63.206604,39.664466 52.887245,40.574119 42.911201,43.772536 l -5.412208,0.133635 C 25.24914,39.998388 12.999287,39.194662 0.74943363,41.701197 Z"
       id="path89"
       inkscape:connector-curvature="0"
       sodipodi:nodetypes="ccccccccccccccc" />
    <path
       style="fill:none;stroke:#000000;stroke-width:0.26458332px;stroke-linecap:butt;stroke-linejoin:miter;stroke-opacity:1"
       d="m 25.607885,66.68018 c -2.275323,3.6174 -2.219092,6.39544 1.795388,7.74851 3.712848,-3.44974 9.113038,0.187357 13.985118,1.606397 3.627167,-2.206387 6.796507,-3.680267 9.165924,-3.874257 1.286716,-1.10713 3.752907,-1.03478 2.740326,-4.44121 l -3.685267,-4.252237 -4.535715,-5.386151 -3.779761,-7.087043 -1.41741,-4.535717"
       id="path91"
       inkscape:connector-curvature="0"
       sodipodi:nodetypes="ccccccccc" />
    <path
       style="fill:none;stroke:#000000;stroke-width:0.26458332px;stroke-linecap:butt;stroke-linejoin:miter;stroke-opacity:1"
       d="M 13.244284,97.092769 C 8.808307,91.184798 9.3388567,85.718291 12.910197,80.522074"
       id="path93"
       inkscape:connector-curvature="0"
       sodipodi:nodetypes="cc" />
    <path
       style="fill:none;stroke:#000000;stroke-width:0.26458332px;stroke-linecap:butt;stroke-linejoin:miter;stroke-opacity:1"
       d="m 61.887337,87.404261 c 1.250115,-3.850937 0.93217,-7.619354 -1.202711,-11.292134"
       id="path95"
       inkscape:connector-curvature="0"
       sodipodi:nodetypes="cc" />
    <path
       style="fill:none;stroke:#000000;stroke-width:0.26458332px;stroke-linecap:butt;stroke-linejoin:miter;stroke-opacity:1"
       d="m 66.030016,86.802901 c 0.610453,-3.095867 0.699907,-6.191747 0.601355,-9.287614"
       id="path97"
       inkscape:connector-curvature="0"
       sodipodi:nodetypes="cc" />
    <path
       style="fill:none;stroke:#000000;stroke-width:0.26458332px;stroke-linecap:butt;stroke-linejoin:miter;stroke-opacity:1"
       d="M 64.626851,39.83031 C 62.025431,26.593281 52.191446,19.188966 38.568071,14.84061 26.242965,12.840461 13.554191,17.749996 0.88306863,22.324157 L 1.1503377,18.716018 C 17.175924,11.508339 33.813008,7.6638976 51.263374,8.2925066"
       id="path101"
       inkscape:connector-curvature="0"
       sodipodi:nodetypes="ccccc" />
    <path
       style="fill:#443842;fill-opacity:1;stroke:#000000;stroke-width:0.26458332px;stroke-linecap:butt;stroke-linejoin:miter;stroke-opacity:1"
       d="m 13.444735,18.047844 c 3.138981,4.02202 4.803514,8.504805 2.271792,14.29892 1.082991,-3.588099 3.911912,-5.779454 0,-13.363475 11.275263,4.966078 21.190127,5.960544 31.404169,6.681737 -0.309526,-2.982221 0.182441,-5.162949 0.935444,-7.082641"
       id="path103"
       inkscape:connector-curvature="0"
       sodipodi:nodetypes="ccccc" />
    <path
       style="fill:#423640;fill-opacity:1;stroke:#000000;stroke-width:0.26458332px;stroke-linecap:butt;stroke-linejoin:miter;stroke-opacity:1"
       d="m 1.0823937,34.412466 c 8.335638,-2.473502 17.2379333,-1.025469 25.9930873,-0.59572 l 0.569639,4.661922 C 10.071806,38.33029 5.930802,39.213833 0.74943363,41.701195 Z"
       id="path105"
       inkscape:connector-curvature="0"
       sodipodi:nodetypes="ccccc" />
    <path
       style="fill:#423640;fill-opacity:1;stroke:#000000;stroke-width:0.26458332px;stroke-linecap:butt;stroke-linejoin:miter;stroke-opacity:1"
       d="m 46.185254,33.950381 -0.534539,5.345391 c 5.969019,-2.494516 12.294398,-2.316337 18.976136,0.534538 L 61.954155,34.084015 C 56.737086,32.601372 52.093918,31.283457 46.185254,33.950381 Z"
       id="path107"
       inkscape:connector-curvature="0"
       sodipodi:nodetypes="ccccc" />
    <path
       style="fill:none;stroke:#000000;stroke-width:0.26458332px;stroke-linecap:butt;stroke-linejoin:miter;stroke-opacity:1"
       d="M 0.96450663,44.455057 C 6.097893,39.902688 18.722506,41.222053 30.011673,43.395586 c 6.557955,0.966266 4.551746,5.998348 3.64929,10.506422 l 0.91232,0.264857"
       id="path3808"
       inkscape:connector-curvature="0"
       sodipodi:nodetypes="cccc" />
    <path
       style="fill:none;stroke:#000000;stroke-width:0.26458332px;stroke-linecap:butt;stroke-linejoin:miter;stroke-opacity:1"
       d="m 45.508501,53.333111 0.790779,-0.2081 c -2.809572,-5.749992 -0.256456,-10.482974 5.535454,-10.280127 11.128703,-0.992791 21.803554,-3.113137 19.811097,8.15751 l 0.915641,-0.374581"
       id="path3810"
       inkscape:connector-curvature="0"
       sodipodi:nodetypes="ccccc" />
    <path
       style="fill:#e3dbdb;fill-opacity:1;stroke-width:0.08323991"
       d="m 9.0237967,65.506413 c -1.4682817,-0.15397 -2.9626797,-0.56185 -4.040076,-1.10269 -1.634721,-0.82061 -3.066576,-2.27641 -3.906439,-3.971757 l -0.35148107,-0.70951 0.06185,-5.368961 c 0.03402,-2.952927 0.06496,-6.38852 0.06877,-7.634642 0.0058,-1.883002 0.0262,-2.258276 0.121053,-2.22188 0.06277,0.02408 0.35727507,-0.140243 0.65445707,-0.365181 1.082624,-0.819433 2.915061,-1.569802 4.8112143,-1.970151 4.406947,-0.930471 10.180372,-0.772782 18.476536,0.504653 2.192711,0.337632 5.876946,1.027716 6.480069,1.213766 2.048957,0.632055 2.962706,1.767818 3.068659,3.814251 0.05703,1.101466 -0.04551,1.879576 -0.569246,4.319792 -0.454909,2.119532 -0.45797,2.037122 0.0795,2.140582 0.152445,0.0293 0.293695,0.0964 0.313886,0.14903 0.05022,0.13086 -1.05836,3.397117 -1.414913,4.168824 -0.732269,1.5849 -2.239002,3.332254 -3.712726,4.305644 -2.02456,1.33722 -4.590303,2.21423 -7.65807,2.61765 -1.129269,0.1485 -4.864074,0.21214 -6.575955,0.11205 -0.389146,-0.0228 -1.718902,-0.0158 -2.955014,0.0155 -1.236115,0.0313 -2.5645483,0.0237 -2.9520783,-0.017 z"
       id="path3822"
       inkscape:connector-curvature="0" />
    <path
       style="fill:#e3dbdb;fill-opacity:1;stroke-width:0.08323991"
       d="m 55.135766,63.884393 c -4.245753,-0.51912 -6.75894,-2.45948 -7.870309,-6.076441 -0.126606,-0.41204 -0.523955,-1.54773 -0.882997,-2.52375 -0.359042,-0.976027 -0.652804,-1.790194 -0.652804,-1.809264 0,-0.0191 0.17157,-0.0779 0.381265,-0.130677 0.434552,-0.10942 0.435062,-0.0258 -0.0067,-1.094272 -0.552059,-1.335365 -0.732677,-2.195663 -0.738011,-3.51518 -0.0054,-1.330095 0.105802,-1.863376 0.588532,-2.822951 0.3929,-0.781015 1.342628,-1.730758 2.148578,-2.148615 0.897016,-0.465074 1.655619,-0.644996 3.078517,-0.730146 0.686728,-0.0411 2.409793,-0.18796 3.829034,-0.326361 4.565774,-0.445249 6.033349,-0.529106 8.365611,-0.478023 2.07662,0.04549 2.841141,0.126278 3.953896,0.417827 1.799236,0.471414 3.091538,1.422384 3.748829,2.758673 0.497398,1.011214 0.580136,1.471774 0.575736,3.204737 -0.0021,0.851614 -0.04857,1.760175 -0.103831,2.032661 -0.05495,0.270997 -0.08083,0.511813 -0.0575,0.535144 0.02334,0.02334 0.239339,-0.0392 0.480017,-0.138954 0.556673,-0.23073 0.582486,-0.228386 0.523674,0.04753 -0.02684,0.125902 -0.08525,0.809508 -0.129799,1.519129 -0.147185,2.344232 -0.331981,4.529702 -0.422315,4.994382 -0.51725,2.660827 -2.245145,4.260401 -5.696934,5.273871 -3.036139,0.89144 -8.226726,1.36352 -11.112529,1.01067 z"
       id="path3824"
       inkscape:connector-curvature="0" />
    <path
       style="fill:#443842;fill-opacity:1;stroke-width:0.08323991"
       d="M 32.28641,18.305832 C 24.549261,18.178371 17.207502,18.068074 15.97139,18.060727 l -2.247479,-0.01336 0.6243,-0.202904 c 1.193345,-0.387853 4.386352,-1.280475 5.785702,-1.617424 4.427257,-1.066041 7.87323,-1.549631 11.653059,-1.635337 3.411294,-0.07735 5.96772,0.166613 7.699693,0.734782 2.308145,0.757182 5.380693,1.999078 7.03377,2.842982 l 0.74916,0.38245 -0.457819,-0.0072 C 46.559975,18.540816 40.023562,18.43326 32.28641,18.3058 Z"
       id="path3830"
       inkscape:connector-curvature="0" />
    <path
       style="fill:#443842;fill-opacity:1;stroke-width:0.08323991"
       d="m 17.053504,26.939855 c -3e-6,-1.248121 -0.03378,-1.749496 -0.155165,-2.302999 -0.453914,-2.069828 -1.414126,-4.087257 -2.941696,-6.180564 l -0.28853,-0.39539 0.527338,-0.01095 c 0.449215,-0.0093 0.48418,-0.02003 0.236,-0.07228 -0.160237,-0.03373 -0.267112,-0.06626 -0.2375,-0.07228 0.02961,-0.006 1.040979,-0.293536 2.247479,-0.63891 4.660546,-1.334138 7.769966,-1.977729 11.724606,-2.426775 1.017254,-0.115509 1.994643,-0.146864 4.619815,-0.148216 3.537902,-0.0019 4.251838,0.05424 5.951654,0.467389 1.447167,0.351739 5.291008,1.842997 7.283492,2.825705 l 0.998879,0.492654 -3.829037,-0.04512 c -2.105969,-0.02482 -8.286533,-0.11801 -13.734584,-0.207087 -5.448051,-0.08908 -10.954372,-0.157438 -12.236267,-0.151905 -1.826178,0.0079 17.164206,0.341765 28.440345,0.500031 1.129313,0.01585 2.07745,0.053 2.106975,0.08254 0.02952,0.02955 -0.07847,0.479044 -0.240001,0.998878 -0.489603,1.575679 -0.583435,2.235391 -0.587264,4.12886 l -0.0034,1.685388 -0.211984,2.49e-4 c -0.349528,2.64e-4 -4.243692,-0.321927 -6.072632,-0.502571 -9.465646,-0.934926 -16.877517,-2.716305 -24.055692,-5.781574 -0.604564,-0.258165 -1.115914,-0.452686 -1.136332,-0.432269 -0.02043,0.02043 0.165801,0.44436 0.413816,0.942097 1.268926,2.54657 1.844098,4.939385 1.63507,6.802157 -0.06551,0.583766 -0.359389,1.924947 -0.443614,2.024512 -0.0065,0.0076 -0.01177,-0.704053 -0.01177,-1.581557 z"
       id="path3832"
       inkscape:connector-curvature="0" />
    <path
       style="fill:#443842;fill-opacity:1;stroke-width:0.08323991"
       d="m 17.069035,27.591873 c 0.138478,-3.017554 -0.790427,-5.868559 -2.8477,-8.740193 l -0.536704,-0.749157 0.43584,-0.04886 c 0.239712,-0.02687 0.342196,-0.05734 0.22774,-0.06771 l -0.2081,-0.01884 0.2081,-0.0839 c 0.39856,-0.160689 4.629084,-1.337519 5.951654,-1.655606 4.549272,-1.094134 7.498371,-1.48708 11.675837,-1.555723 5.164553,-0.08486 6.499646,0.161406 11.256759,2.076386 0.801182,0.322516 1.98111,0.843418 2.622055,1.157557 l 1.16536,0.571164 -3.912277,-0.04524 c -2.151751,-0.0249 -7.171116,-0.09916 -11.154148,-0.16506 -3.98303,-0.0659 -7.991031,-0.112893 -8.906669,-0.104428 -2.504884,0.02315 -1.417696,0.04548 11.112526,0.228266 12.592952,0.183698 13.545381,0.202584 13.612728,0.269933 0.02503,0.02503 -0.08802,0.48604 -0.25123,1.02447 -0.460848,1.520383 -0.565264,2.27367 -0.575312,4.15045 l -0.0089,1.6541 -0.832398,-0.05502 c -12.525537,-0.827949 -21.38743,-2.726416 -29.911273,-6.407858 -0.381759,-0.16488 -0.710054,-0.299783 -0.729549,-0.299783 -0.0195,0 0.07287,0.215384 0.205245,0.478631 0.79392,1.578779 1.437275,3.342833 1.722811,4.723863 0.268123,1.29681 0.156157,3.234306 -0.250931,4.342201 -0.10872,0.295876 -0.113948,0.246147 -0.07146,-0.679643 z m 3.131476,-9.509826 c -0.512464,-0.01458 -1.373997,-0.01463 -1.914517,-1.08e-4 -0.540523,0.01452 -0.121232,0.02646 0.931751,0.02651 1.052986,5.8e-5 1.49523,-0.01183 0.982766,-0.0264 z"
       id="path3834"
       inkscape:connector-curvature="0" />
    <path
       style="fill:#443842;fill-opacity:1;stroke-width:0.08323991"
       d="m 17.043021,27.032629 c -0.0068,-1.637536 -0.132966,-2.486986 -0.572966,-3.857853 -0.414938,-1.29278 -1.444111,-3.184795 -2.693865,-4.952354 -0.106977,-0.151297 -0.09481,-0.16152 0.192201,-0.16152 0.168524,0 0.286245,-0.03262 0.261604,-0.07249 -0.07135,-0.115456 4.581977,-1.443961 6.756598,-1.928974 0.469265,-0.104661 0.85321,-0.223771 0.85321,-0.264687 0,-0.04092 0.03643,-0.05188 0.08096,-0.02437 0.04453,0.02752 0.653222,-0.06148 1.352648,-0.197778 3.702214,-0.721453 5.269364,-0.865804 9.616487,-0.885773 2.041893,-0.0094 3.683365,0.01529 3.683365,0.05539 0,0.03977 0.117033,0.07231 0.260072,0.07231 1.373799,0 5.589368,1.439847 9.100841,3.108433 l 1.078543,0.512504 -2.160662,0.04374 -2.160659,0.04374 2.455577,0.01995 c 1.350568,0.01098 2.503416,0.05032 2.561886,0.08743 0.08309,0.05273 0.04154,0.292479 -0.190177,1.097526 -0.447852,1.555967 -0.550357,2.303704 -0.567158,4.137338 l -0.0149,1.625078 -0.915639,-0.05567 c -1.616284,-0.09827 -5.606063,-0.461758 -7.449973,-0.67873 -8.398594,-0.988253 -14.948365,-2.627455 -21.665623,-5.422228 -0.722405,-0.300564 -1.331333,-0.528611 -1.353172,-0.50677 -0.02183,0.02183 0.161677,0.467117 0.407813,0.989505 1.449335,3.075993 1.877198,5.353825 1.421432,7.567372 -0.06127,0.297582 -0.161065,0.682707 -0.221766,0.855834 -0.09944,0.283639 -0.110987,0.164248 -0.116686,-1.206979 z m 23.884623,-8.617736 c -0.649592,-0.01405 -1.735873,-0.01408 -2.413958,-7.1e-5 -0.678082,0.014 -0.146598,0.0255 1.181079,0.02553 1.327676,4e-5 1.88247,-0.01143 1.232879,-0.02548 z m -5.160772,-0.08326 c -0.695317,-0.01392 -1.856513,-0.01394 -2.580437,-6.4e-5 -0.723923,0.01386 -0.155027,0.02524 1.264214,0.02529 1.419241,3.7e-5 2.01154,-0.01132 1.316223,-0.02522 z m -5.332548,-0.08327 c -0.698174,-0.01392 -1.840642,-0.01392 -2.538817,0 -0.698175,0.01392 -0.126942,0.02532 1.269407,0.02532 1.396349,0 1.967585,-0.01138 1.26941,-0.02532 z m -5.156178,-0.08307 c -0.512464,-0.01458 -1.373998,-0.01463 -1.914517,-1.09e-4 -0.540523,0.01453 -0.121233,0.02646 0.931751,0.02651 1.052986,5.8e-5 1.495229,-0.01183 0.982766,-0.02641 z m -5.831491,-0.07989 c -0.103008,-0.01984 -0.271568,-0.01984 -0.374579,0 -0.10301,0.01984 -0.01873,0.03607 0.187291,0.03607 0.206018,0 0.290298,-0.01624 0.187288,-0.03607 z"
       id="path3836"
       inkscape:connector-curvature="0" />
    <path
       style="fill:#443842;fill-opacity:1;stroke-width:0.08323991"
       d="m 17.011888,27.075589 c 0,-1.684147 -0.108419,-2.487443 -0.506191,-3.750498 -0.359947,-1.142952 -1.201372,-2.815336 -2.069785,-4.113831 -0.734213,-1.097831 -0.739317,-1.109017 -0.518924,-1.137058 0.12242,-0.01558 0.241432,-0.05684 0.264472,-0.09169 0.09098,-0.137631 3.323545,-1.071875 5.910305,-1.708137 0.846965,-0.208327 1.596125,-0.403212 1.664798,-0.433078 0.06867,-0.02987 0.15177,-0.04875 0.184658,-0.04196 0.03289,0.0068 0.632216,-0.09964 1.331838,-0.2365 0.699622,-0.136861 1.337593,-0.248838 1.417712,-0.248843 0.08012,-3e-6 0.145788,-0.0281 0.145933,-0.06243 1.67e-4,-0.03434 0.140613,-0.0663 0.31215,-0.07104 0.171538,-0.0047 0.929942,-0.08847 1.685343,-0.186071 0.755401,-0.0976 1.954057,-0.21844 2.663677,-0.268525 1.488755,-0.105082 6.983545,-0.08074 7.136678,0.03161 0.05659,0.04152 0.234521,0.06014 0.395388,0.04135 0.160866,-0.01879 0.292486,-0.0042 0.292486,0.03238 0,0.03659 0.08428,0.06657 0.18729,0.06663 0.977789,5.29e-4 5.423763,1.59662 8.424649,3.024359 l 1.078727,0.513231 -1.661406,0.04429 -1.661406,0.04429 2.013654,0.01815 c 1.186537,0.01069 2.034098,0.05122 2.063422,0.09867 0.02737,0.04429 -0.06329,0.468645 -0.201481,0.943014 -0.477522,1.63925 -0.515834,1.908228 -0.562623,3.950047 l -0.04435,1.935326 -0.427334,-5.29e-4 c -0.492114,-8.08e-4 -4.760594,-0.355455 -6.545465,-0.543942 -8.771768,-0.926308 -15.41431,-2.504778 -22.464916,-5.338339 -1.070454,-0.430204 -1.958327,-0.770138 -1.973056,-0.755412 -0.01474,0.01474 0.17277,0.456174 0.41666,0.980993 1.261687,2.714975 1.768719,4.886648 1.557875,6.672554 -0.08777,0.743413 -0.35777,1.93933 -0.461193,2.042753 -0.02727,0.02727 -0.04959,-0.625994 -0.04959,-1.451703 z m 23.244746,-8.660117 c -0.286139,-0.01625 -0.754362,-0.01625 -1.040501,0 -0.286136,0.01625 -0.05203,0.02955 0.520251,0.02955 0.572275,0 0.806386,-0.01331 0.52025,-0.02955 z m -5.202494,-0.08334 c -0.309031,-0.01601 -0.814713,-0.01601 -1.123741,0 -0.309028,0.01601 -0.05619,0.02912 0.561869,0.02912 0.618059,0 0.8709,-0.0131 0.561872,-0.02912 z m -5.327356,-0.08324 c -0.309029,-0.01601 -0.814711,-0.01601 -1.123739,0 -0.309028,0.01601 -0.05619,0.02912 0.561869,0.02912 0.618056,0 0.870898,-0.0131 0.56187,-0.02912 z m -5.241915,-0.08202 c -0.170471,-0.01789 -0.470135,-0.01812 -0.665919,-5.29e-4 -0.195784,0.0176 -0.05631,0.03222 0.309951,0.03252 0.366255,2.65e-4 0.526442,-0.01408 0.355968,-0.03197 z"
       id="path3838"
       inkscape:connector-curvature="0" />
    <path
       style="fill:#443842;fill-opacity:1;stroke-width:0.08323991"
       d="m 16.988887,26.801092 c -0.03161,-1.178624 -0.09319,-1.985791 -0.18034,-2.36411 -0.418353,-1.816024 -1.384665,-3.839335 -2.786745,-5.835021 -0.342373,-0.487325 -0.346202,-0.500136 -0.157906,-0.528224 0.106135,-0.01582 0.230434,-0.05767 0.276215,-0.09297 0.205676,-0.158591 3.277602,-1.04309 5.785175,-1.665724 0.93853,-0.233039 1.762604,-0.446053 1.831277,-0.473366 0.06867,-0.02731 0.199776,-0.05669 0.29134,-0.06528 0.473327,-0.04441 2.750815,-0.507357 2.774836,-0.564044 0.01535,-0.03623 0.05512,-0.04907 0.08836,-0.02853 0.03324,0.02056 0.769837,-0.05181 1.636879,-0.16078 0.867039,-0.108974 2.157037,-0.240911 2.866654,-0.29319 1.484186,-0.109347 7.065166,-0.08889 7.219919,0.02647 0.05659,0.04219 0.233928,0.06141 0.394073,0.04271 0.160144,-0.01871 0.30113,-0.01349 0.313295,0.01156 0.01217,0.02506 0.359246,0.112792 0.771285,0.194958 0.412038,0.08217 1.367215,0.358206 2.122617,0.613415 0.755404,0.25521 1.429647,0.468916 1.498319,0.474904 0.06867,0.006 0.14359,0.03444 0.166481,0.06324 0.02289,0.02879 0.659675,0.303511 1.415077,0.610481 0.755404,0.306969 1.896149,0.80782 2.534991,1.113004 l 1.161534,0.554879 -1.244772,0.04502 -1.244774,0.04502 1.597456,0.01741 c 0.902046,0.0098 1.618795,0.05194 1.646475,0.09673 0.02696,0.04362 -0.101428,0.633587 -0.285313,1.311028 -0.403246,1.485586 -0.50146,2.291922 -0.502359,4.124299 l -7.94e-4,1.394267 -0.478628,-5.29e-4 c -0.263245,-2.65e-4 -1.58364,-0.09439 -2.934206,-0.209 -11.141108,-0.94547 -18.026265,-2.450121 -26.199762,-5.725623 -0.972865,-0.389874 -1.768848,-0.673528 -1.768848,-0.630343 0,0.04318 0.210028,0.536096 0.466727,1.095362 0.528071,1.15049 1.118201,2.857354 1.330066,3.847004 0.278397,1.300438 0.154239,3.518752 -0.251418,4.492043 -0.09115,0.218689 -0.111741,0.01217 -0.153297,-1.537028 z m 22.936369,-8.37859 c -0.05636,-0.02281 -0.16873,-0.02418 -0.249719,-0.0031 -0.08099,0.02111 -0.03488,0.03976 0.102466,0.04146 0.137347,0.0016 0.20361,-0.01558 0.147253,-0.03837 z m -5.287316,-0.08602 c -0.08012,-0.02093 -0.211223,-0.02093 -0.291341,0 -0.08012,0.02093 -0.01458,0.03807 0.145669,0.03807 0.160237,0 0.22579,-0.01712 0.145672,-0.03807 z m -5.327354,-0.08324 c -0.08012,-0.02093 -0.211222,-0.02093 -0.291341,0 -0.08012,0.02093 -0.01458,0.03807 0.145669,0.03807 0.160237,0 0.22579,-0.01714 0.145672,-0.03807 z"
       id="path3840"
       inkscape:connector-curvature="0" />
    <path
       style="fill:#443842;fill-opacity:1;stroke-width:0.08323991"
       d="m 16.988334,26.842713 c -0.05263,-1.826193 -0.129667,-2.350262 -0.531177,-3.613491 -0.31279,-0.984104 -1.221073,-2.770941 -2.054093,-4.040963 l -0.7074,-1.078499 0.304464,-0.10467 c 0.167454,-0.05757 0.317478,-0.143711 0.333383,-0.191428 0.0159,-0.04772 0.06017,-0.06745 0.09836,-0.04384 0.03819,0.0236 0.756055,-0.159017 1.595257,-0.405823 0.839203,-0.246806 2.003412,-0.571143 2.587133,-0.720746 0.583719,-0.149606 1.061307,-0.302699 1.061307,-0.340207 0,-0.03751 0.04682,-0.05087 0.10405,-0.02969 0.05723,0.02117 0.534819,-0.07292 1.06131,-0.209102 0.526492,-0.136184 1.088361,-0.268158 1.248598,-0.293275 0.64869,-0.101682 2.547057,-0.471112 2.663677,-0.518361 0.06867,-0.02782 0.218506,-0.06022 0.33296,-0.07199 1.212709,-0.124727 2.713762,-0.321206 2.746917,-0.359558 0.06049,-0.06997 0.620223,-0.0845 4.866471,-0.126283 2.658557,-0.02617 3.858868,-0.01035 3.933787,0.05183 0.0593,0.04922 0.237922,0.06837 0.396931,0.04257 0.161441,-0.02619 0.312515,-0.009 0.342114,0.03884 0.02915,0.04717 0.160938,0.06992 0.292865,0.05056 0.131924,-0.01937 0.239861,-0.01109 0.239861,0.01839 0,0.02948 0.2903,0.121795 0.645109,0.205142 0.354812,0.08335 1.188249,0.337968 1.852089,0.565822 0.663837,0.227856 1.263166,0.419354 1.331838,0.42555 0.06867,0.0062 0.14359,0.03207 0.166481,0.0575 0.02289,0.02543 0.622218,0.284253 1.331839,0.575165 0.709618,0.290909 1.720985,0.732827 2.247476,0.982035 0.526492,0.249209 1.088361,0.514797 1.248598,0.590196 l 0.291341,0.137088 -0.95726,0.04583 -0.957257,0.04583 1.306115,0.01659 c 0.761093,0.0097 1.327555,0.0513 1.357498,0.09974 0.02826,0.04573 -0.06444,0.49204 -0.206007,0.991812 -0.436959,1.542632 -0.50428,2.024282 -0.558231,3.993904 l -0.05106,1.864116 -1.049017,-0.05591 c -2.585364,-0.1378 -7.36031,-0.625009 -10.371893,-1.058302 -6.673979,-0.96022 -11.973197,-2.369224 -18.127889,-4.820017 -0.951297,-0.378804 -1.746417,-0.671949 -1.766933,-0.651434 -0.0205,0.02051 0.200033,0.578184 0.490109,1.239261 1.385305,3.157075 1.712325,5.068147 1.250146,7.305707 -0.283983,1.374846 -0.334966,1.295088 -0.389867,-0.609912 z"
       id="path3842"
       inkscape:connector-curvature="0" />
    <path
       style="fill:none;stroke:#000000;stroke-width:0.26458332px;stroke-linecap:butt;stroke-linejoin:miter;stroke-opacity:1"
       d="M 87.879297,33.549475 C 84.850137,25.213187 81.67714,20.123695 68.299781,15.172453 60.235431,12.010163 49.505623,9.4541676 38.63459,10.345976 26.430679,12.599415 20.197751,10.539887 0.88306863,22.324157"
       id="path3856"
       inkscape:connector-curvature="0"
       sodipodi:nodetypes="cccc" />
    <path
       style="fill:#9c7765;fill-opacity:1;stroke-width:0.11771901"
       d="M 70.08742,40.582401 C 68.851099,40.417455 64.878478,39.72199 64.81606,39.659572 64.79786,39.641372 64.656106,39.102558 64.501053,38.462208 62.777578,31.344451 58.917093,25.765446 52.634609,21.313345 49.426335,19.039791 45.190039,16.948741 40.29979,15.224838 39.010288,14.770266 38.384376,14.620424 37.171198,14.475866 31.260226,13.77154 25.091249,14.441316 17.173059,16.647101 14.314558,17.443399 10.057407,18.82764 6.0052,20.278412 c -1.4804663,0.530034 -2.7136523,0.941805 -2.7404133,0.915045 -0.06993,-0.06993 2.6246073,-1.591066 4.9612943,-2.800778 6.063583,-3.139147 11.230202,-4.97816 16.656618,-5.928781 0.938469,-0.164404 3.825529,-0.56384 6.415688,-0.887637 2.59016,-0.323798 5.318575,-0.700613 6.06315,-0.837369 1.7228,-0.316428 7.04021,-0.43825 9.934249,-0.227592 8.073311,0.587658 16.756054,2.841992 25.008025,6.49293 6.956134,3.077617 11.041299,6.75913 13.617416,12.271872 0.62611,1.33984 1.70632,4.019397 1.70632,4.23268 0,0.251841 -1.46674,1.989394 -2.19619,2.60168 -1.878867,1.577086 -4.196817,2.761395 -7.634616,3.900749 l -2.294118,0.760317 -2.089578,-0.01212 c -1.149266,-0.0067 -2.645797,-0.08632 -3.325625,-0.177019 z"
       id="path3877"
       inkscape:connector-curvature="0" />
    <path
       style="fill:#dfcdc0;fill-opacity:1;stroke-width:0.11771901"
       d="M 87.288497,31.488789 C 86.133607,28.535171 84.48849,25.687508 82.80902,23.734902 80.58599,21.150359 76.952389,18.665969 72.500661,16.686807 69.330582,15.277443 64.89289,13.668051 61.359319,12.646236 53.051095,10.243722 43.458542,9.3811056 36.89066,10.44588 c -1.003556,0.162692 -3.572772,0.511487 -5.709372,0.775095 -5.780868,0.71323 -8.146314,1.127239 -11.042221,1.932652 l -1.036106,0.288163 0.03549,-0.549701 0.03549,-0.549701 2.413241,-0.616447 c 8.963368,-2.2896324 18.92465,-3.4925444 27.310119,-3.2979431 2.322425,0.0539 2.750542,0.09911 5.180325,0.5470337 1.456774,0.268554 3.337335,0.670512 4.179024,0.893241 0.841693,0.2227294 2.271978,0.5704074 3.178414,0.7726184 5.749988,1.282738 9.499367,2.950428 15.47332,6.882401 4.398976,2.895346 5.703846,4.031414 7.750633,6.748 1.00997,1.340479 2.13784,3.546207 2.54547,4.97805 0.23841,0.837483 0.60156,3.149217 0.50796,3.233627 -0.0143,0.01291 -0.20511,-0.43446 -0.42396,-0.99418 z"
       id="path3879"
       inkscape:connector-curvature="0" />
    <path
       style="fill:#dfcdc0;fill-opacity:1;stroke-width:0.11771901"
       d="m 1.1495007,21.045111 c 0.04235,-0.5133 0.106305,-1.226408 0.142114,-1.584685 l 0.06511,-0.651415 2.316348,-0.985369 c 3.0643733,-1.303576 5.9536256,-2.411103 8.9230503,-3.420446 2.210559,-0.751396 6.23045,-2.001949 6.43524,-2.001949 0.04605,0 0.08373,0.230278 0.08373,0.511731 v 0.511733 L 17.61677,13.922054 C 13.255395,15.36974 7.228287,18.285321 1.5297367,21.704066 l -0.45724,0.274312 z"
       id="path3881"
       inkscape:connector-curvature="0" />
    <path
       style="fill:#dfcdc0;fill-opacity:1;stroke-width:0.11771901"
       d="M 0.98636163,9.5759896 V 0.62934686 H 9.9135023 c 4.9099267,0 14.9775177,0.03526 22.3724267,0.07834 l 13.445286,0.07834 2.525143,3.57458994 c 1.38883,1.9660254 2.525144,3.5918128 2.525144,3.6128598 0,0.02106 -1.946778,0.06902 -4.326173,0.106617 -4.652822,0.07351 -6.329307,0.173154 -10.270984,0.6104733 C 25.312653,9.8967486 14.434833,12.82495 3.5424387,17.477444 c -1.345839,0.574853 -2.471527,1.045184 -2.501529,1.045184 -0.03,0 -0.05455,-4.02599 -0.05455,-8.9466444 z"
       id="path3883"
       inkscape:connector-curvature="0" />
  </g>
</svg>
